<?xml version="1.0" encoding="UTF-8" standalone="no"?>
<!-- Created with Inkscape (http://www.inkscape.org/) -->

<svg
   xmlns:dc="http://purl.org/dc/elements/1.1/"
   xmlns:cc="http://creativecommons.org/ns#"
   xmlns:rdf="http://www.w3.org/1999/02/22-rdf-syntax-ns#"
   xmlns:svg="http://www.w3.org/2000/svg"
   xmlns="http://www.w3.org/2000/svg"
   xmlns:sodipodi="http://sodipodi.sourceforge.net/DTD/sodipodi-0.dtd"
   xmlns:inkscape="http://www.inkscape.org/namespaces/inkscape"
   version="1.1"
   id="svg2"
   width="966.66669"
   height="966.66669"
   viewBox="0 0 966.66669 966.66669"
   sodipodi:docname="punkstein head-only.svg"
   inkscape:version="0.92.1 r15371">
  <metadata
     id="metadata8">
    <rdf:RDF>
      <cc:Work
         rdf:about="">
        <dc:format>image/svg+xml</dc:format>
        <dc:type
           rdf:resource="http://purl.org/dc/dcmitype/StillImage" />
        <dc:title></dc:title>
      </cc:Work>
    </rdf:RDF>
  </metadata>
  <defs
     id="defs6" />
  <sodipodi:namedview
     pagecolor="#ffffff"
     bordercolor="#666666"
     borderopacity="1"
     objecttolerance="10"
     gridtolerance="10"
     guidetolerance="10"
     inkscape:pageopacity="0"
     inkscape:pageshadow="2"
     inkscape:window-width="1366"
     inkscape:window-height="704"
     id="namedview4"
     showgrid="false"
     showguides="true"
     inkscape:guide-bbox="true"
     inkscape:zoom="0.35355339"
     inkscape:cx="463.82253"
     inkscape:cy="502.36501"
     inkscape:window-x="0"
     inkscape:window-y="27"
     inkscape:window-maximized="1"
     inkscape:current-layer="svg2" />
  <g
     id="g4487"
     transform="translate(-16.384186,40.960453)">
    <path
       style="fill:#000000;fill-opacity:1;stroke-width:1.33333337"
       d="m 719.98332,714.23209 c -208.73586,133.9957 -240.84102,168.04994 -475.2796,-21.67526 -4.52519,-3.66212 9.5636,7.44859 10.8955,8.80124 2.4944,2.53332 10.8993,8.39572 16.4023,11.44052 3.7804,2.0916 12.2572,0.2425 15.5257,-3.3868 1.1585,-1.2864 5.4538,-9.03213 9.5451,-17.21262 5.7236,-11.4444 7.4386,-16.25692 7.4386,-20.87331 0,-5.71655 -0.2882,-6.16856 -6.1075,-9.57889 -3.3591,-1.96859 -8.3091,-3.7577 -11,-3.97582 -4.195,-0.34002 -5.5977,0.34227 -9.839,4.78588 -2.7207,2.85035 -5.8906,5.18244 -7.0444,5.18244 -1.1537,0 -5.0778,-1.5101 -8.72,-3.3558 -7.4019,-3.75077 -8.4194,-6.89576 -4.0643,-12.56196 1.3744,-1.78809 2.1883,-4.06044 1.8087,-5.04965 -0.3796,-0.98922 0.2241,-2.82623 1.3417,-4.08226 1.1175,-1.25601 2.9809,-5.51084 4.1408,-9.45514 1.1598,-3.94432 2.7062,-7.89131 3.4364,-8.77108 0.7301,-0.87979 1.8131,-3.95262 2.4066,-6.82852 0.9108,-4.41328 1.6602,-5.2964 4.8044,-5.66152 3.907,-0.45372 11.3591,2.47884 14.6424,5.76212 1.4381,1.43809 1.6494,3.17424 0.8292,6.81094 -1.2285,5.44702 0.2272,10.6629 3.7508,13.4397 4.3181,3.40294 11.2859,5.75317 17.0564,5.75317 4.5808,0 6.5032,-0.7624 9.2456,-3.66667 3.9729,-4.20748 16.6456,-29.33636 16.6456,-33.00697 0,-1.34735 0.8982,-3.44228 1.9961,-4.65541 1.0979,-1.21314 2.3588,-5.76039 2.8021,-10.10499 -8.90158,-33.23858 -17.25222,-60.89465 -3.7012,-97.95464 1.1024,-2.89087 2.229,-16.34556 1.7289,-20.6472 -0.088,-0.75307 -2.6253,-4.6512 -5.6393,-8.66251 -5.2359,-6.96828 -5.4377,-7.59055 -4.5283,-13.96412 0.5234,-3.66895 1.4109,-9.97083 1.972,-14.00416 2.0618,-14.81924 -0.8875,-32.47999 -6.9637,-41.69917 -1.2833,-1.94719 -2.3333,-4.69726 -2.3333,-6.11127 0,-1.414 -0.9,-2.91628 -2,-3.3384 -1.1,-0.42211 -2,-1.91283 -2,-3.31272 0,-1.39989 -0.9,-3.29219 -2,-4.20511 -2.8775,-2.38813 -2.7113,-12 0.2075,-12 3.7648,0 11.1258,-6.52551 11.1258,-9.863 0,-8.47505 -6.7739,-14.12885 -17.2861,-14.42775 -2.226,-0.0633 -4.0472,-0.55377 -4.0472,-1.08998 0,-1.51402 5.3191,-2.58108 12.9658,-2.60107 6.357,-0.0167 7.1435,-0.36196 9,-3.95199 2.8093,-5.43261 2.5661,-7.78388 -1.3342,-12.89733 -2.1739,-2.85017 -5.3653,-4.98949 -9,-6.03297 -3.0974,-0.88924 -5.7843,-1.71131 -5.9709,-1.82682 -0.1867,-0.11546 0.3109,-2.0755 1.1058,-4.35554 0.9539,-2.73655 -15.25936,-10.23692 -16.11596,-11.76748 6.00873,-3.59087 16.80516,-3.18607 19.05236,-3.18607 0.7011,0 0.9629,-1.19287 0.5816,-2.65081 -0.3813,-1.45795 0.3466,-4.00795 1.6175,-5.66667 3.6366,-4.74629 4.37276,-6.64422 2.47866,-12.15361 -1.8231,-5.30327 -16.16279,-6.86122 -23.48239,-9.80869 -2.18351,-0.87926 -1.33743,-1.46371 0.81425,-1.99558 3.22193,-0.79643 11.13907,3.82833 12.65978,-2.84893 4.0826,-1.70578 4.3643,-2.23743 4.2555,-8.02912 -0.064,-3.41132 -0.8315,-6.91734 -1.7054,-7.79116 -2.0497,-2.04971 3.63265,-5.58017 -7.71617,-9.09882 1.3124,-2.88047 9.09057,-5.85769 7.77817,-6.29517 -0.908,-0.30268 -1.67,-1.55034 -1.6934,-2.77255 -0.023,-1.22223 -17.16666,-12.55186 -18.21886,-13.9418 -1.9903,-2.62934 14.23356,6.64471 22.28136,-3.22415 0.7223,-0.88572 1.3133,-2.46225 1.3133,-3.50341 0,-1.04116 0.9,-2.63995 2,-3.55287 1.1,-0.91292 2,-3.20044 2,-5.08338 0,-2.43115 2.1053,-5.37919 7.2629,-10.17008 11.1196,-10.32903 12.1391,-16.09039 4.3165,-24.39323 -2.2351,-2.37235 -3.6731,-4.70409 -3.1955,-5.18164 0.4775,-0.47756 3.8477,0.41345 7.4893,1.98001 8.2053,3.52982 9.557,3.53804 13.947,0.0849 2.33,-1.83278 -10.62904,-23.13762 -10.62904,-25.66284 0,-3.68383 8.67599,13.53213 20.01384,15.76282 3.2921,0.26827 6.6741,-0.2131 7.6983,-1.0957 4.3463,-3.74548 6.9044,-7.91018 7.6406,-12.43939 0.9265,-5.70003 3.2777,-6.67573 3.8649,-1.60389 0.2673,2.30868 1.4211,3.80234 3.3333,4.31512 5.0772,1.36149 8.9814,0.89048 9.7757,-1.17935 -1.34567,-11.7066 -10.86002,-21.44544 -9.51512,-21.44544 1.3449,0 15.54542,18.84324 16.00032,18.10721 0.4549,-0.73602 2.2646,-0.97742 4.0217,-0.53644 2.3717,0.59528 4.0213,-0.0903 6.4045,-2.66177 3.9476,-4.25957 4.6537,-4.29591 6.1663,-0.31729 1.7395,4.57517 11.4525,6.06493 15.188,2.32948 3.1255,-3.12547 6.3043,-11.6955 5.3045,-14.30086 -1.6689,-4.34924 2.4328,-1.32988 5.6491,4.15844 3.0462,5.19796 4.1073,6 7.9377,6 5.2674,0 11.3252,-6.20961 11.3252,-11.60904 0,-3.24826 6.0248,-2.72534 6.0248,-2.72534 0,0 -0.0444,-4.38244 0.11463,-9.39137 0.1966,-6.191661 0.70409,-13.340601 1.99067,-14.352581 1.6942,-1.33267 11.731,19.162691 13.7484,18.656351 2.0174,-0.50635 4.3164,-2.34355 5.1088,-4.08266 1.9988,-4.386801 3.0098,-3.96867 4.4442,1.83798 1.1597,4.6945 1.5794,5.02496 6.8703,5.40845 5.5434,0.40181 5.7153,0.28316 10.5553,-7.28297 6.4306,-10.052671 7.8989,-16.893111 5.2661,-24.534751 -2.3138,-6.716 -2.0062,-7.59386 1.7415,-4.96887 5.1944,3.63831 7.9362,8.59524 9.4699,17.12119 2.6052,14.482231 2.8909,15.056691 8.0126,16.111841 3.6506,0.75208 5.2457,0.40424 7.4054,-1.61484 3.287,-3.07307 4.5807,-3.25271 4.5807,-0.63611 0,1.09659 2.1219,2.52322 4.8896,3.28743 4.3908,1.21235 5.1993,1.016 7.9245,-1.92449 1.8167,-1.96026 3.8643,-2.95626 5.1014,-2.48151 1.1367,0.43619 4.4485,-0.44835 7.3594,-1.96564 2.911,-1.51728 5.6212,-2.22722 6.0227,-1.57763 0.4014,0.6496 0.01,5.40947 -0.8814,10.57748 -1.528,8.91076 -0.8535,13.42394 1.4494,9.69776 0.6471,-1.04701 2.3143,-1.38906 4.3186,-0.88602 2.2358,0.56116 4.3903,-0.0661 6.8371,-1.99084 l 3.5726,-2.81022 1.4966,5.9436 c 1.3571,5.38944 1.9501,6.02866 6.3597,6.85591 4.3846,0.82256 5.2249,0.47899 8.5398,-3.49172 2.0222,-2.42223 3.6766,-5.17671 3.6766,-6.12108 0,-3.01136 2.3462,-1.84236 3.21,1.59944 1.2234,4.8744 6.7702,8.15333 10.5172,6.21716 1.6167,-0.83543 4.9865,-1.67225 7.4883,-1.85963 4.0832,-0.3058 4.663,0.0869 5.6647,3.83806 0.6138,2.29828 2.6905,5.21041 4.615,6.47137 3.3322,2.18335 3.6607,2.17201 6.8881,-0.2376 1.864,-1.39165 4.9403,-5.49871 6.8362,-9.12679 6.6818,-12.7862 8.2969,-10.0156 4.732,8.11719 -2.8642,14.56813 -2.2138,17.98451 4.0674,21.3672 4.0984,2.20711 4.9145,2.28912 5.9591,0.59889 0.6657,-1.07713 1.5225,-1.64637 1.9039,-1.26496 0.3814,0.3814 -0.786,3.61571 -2.5942,7.18735 -9.72552,18.13805 8.32122,15.27979 2.0457,27.02705 -3.3758,6.29856 -3.3542,8.97107 0.1121,13.83906 4.87902,8.7115 -1.27237,12.22244 5.9721,18.23109 3.0503,2.51435 5.7496,3.74653 7.0848,3.23415 1.8514,-0.71043 1.8072,-0.29378 -0.3115,2.93976 -22.66466,13.57572 -16.93926,26.99167 -8.2267,35.61857 3.9093,3.70838 4.0855,4.81751 1.2605,7.939 -2.1024,2.32323 -1.6677,8.42014 1.5437,21.64904 0.6747,2.77911 0.1686,4.77866 -1.9267,7.61268 -4.7687,9.03971 0.72168,11.78157 6.6667,17.72654 -10.78693,13.28614 -5.4538,23.30405 -5.4538,23.30405 -2.9633,2.46151 -5.3879,5.25224 -5.3879,6.20163 0,0.94938 -0.9,2.47309 -2,3.38601 -2.8318,2.35017 -2.4791,7.03124 0.8484,11.26151 1.8739,2.38229 3.7066,3.39672 5.3568,2.96517 7.4589,-1.95055 8.2619,9.47045 1.3378,19.02879 -4.8103,6.64053 -12.9166,26.94532 -14.9356,37.4112 -0.8474,4.39219 -1.0598,13.27353 -0.5297,22.14435 0.9759,16.33112 0.3692,18.63554 -6.4078,24.33805 -3.8876,3.2712 -9.9699,13.99999 -9.1527,22.51764 16.04667,67.40769 5.82244,62.17401 -2.2059,97.05891 0.5512,7.60343 5.1475,27.67873 7.6182,33.27439 0.6476,1.46666 2.2718,5.96666 3.6093,10 5.7847,17.44353 10.5572,20.28998 23.0694,13.7593 9.7479,-5.08786 12.515,-9.12669 12.3506,-18.02696 -0.1582,-8.56521 0.6485,-11.73234 2.9884,-11.73234 0.9721,0 2.1129,-0.9 2.535,-2 1.5824,-4.12367 5.6405,-2.00532 10.2475,5.3492 2.532,4.04205 5.9517,9.29205 7.5993,11.66666 15.96911,9.80001 9.90808,38.84778 -6.0858,25.65084 -2.1788,-1.83333 -5.3748,-3.33017 -7.1023,-3.32632 -3.0378,0.007 -4.6034,0.84537 -14.9228,7.99299 -5.2107,3.60916 -8.2506,9.24569 -7.8164,14.49293 0.2445,2.95324 7.3632,17.14986 9.4473,18.8404 0.4521,0.36667 1.721,2.41647 2.8198,4.55511 2.6008,5.06188 14.9386,18.11158 17.1236,18.11158 0.9314,0 7.80621,-0.20908 7.68,-1.5074 -0.12621,-1.29832 -10e-5,0 -10e-5,0 z"
       id="path4489"
       inkscape:connector-curvature="0"
       sodipodi:nodetypes="csccccscccsccccccccsccscsccccccccscscsscscccccccsccccsccccccccssscccccsccccccscccccccsscscccccccccscscccccccccccscscccccccccccccccccccccccscccccscccccscscccccccccssc" />
  </g>
</svg>
